<?xml version="1.0" encoding="UTF-8" standalone="no"?>
<!-- Created with Inkscape (http://www.inkscape.org/) -->

<svg
   xmlns:dc="http://purl.org/dc/elements/1.1/"
   xmlns:cc="http://creativecommons.org/ns#"
   xmlns:rdf="http://www.w3.org/1999/02/22-rdf-syntax-ns#"
   xmlns:svg="http://www.w3.org/2000/svg"
   xmlns="http://www.w3.org/2000/svg"
   xmlns:sodipodi="http://sodipodi.sourceforge.net/DTD/sodipodi-0.dtd"
   xmlns:inkscape="http://www.inkscape.org/namespaces/inkscape"
   width="251.28699mm"
   height="258.32169mm"
   viewBox="0 0 251.28699 258.32169"
   version="1.1"
   id="svg8"
   inkscape:version="0.92.4 (5da689c313, 2019-01-14)"
   sodipodi:docname="Scottish Labour Party (1976) fin.svg">
  <defs
     id="defs2">
    <ellipse
       style="opacity:1;fill:#ffffff;fill-opacity:1;stroke:#ffffff;stroke-width:3.62369776;stroke-miterlimit:4;stroke-dasharray:none;stroke-opacity:1"
       id="path826-0"
       cx="381.66089"
       cy="148.39815"
       rx="91.09433"
       ry="88.421638" />
    <path
       style="fill:none;stroke:#ff0000;stroke-width:0.26458332px;stroke-linecap:butt;stroke-linejoin:miter;stroke-opacity:1"
       d="m 271.38691,193.8125 c 24.20878,55.44668 78.1764,76.05892 113.58184,75.21726 37.29205,-0.88651 92.11701,-33.96952 104.88839,-75.21726"
       id="path1000-4"
       inkscape:connector-curvature="0"
       sodipodi:nodetypes="csc" />
    <ellipse
       style="opacity:1;fill:#ffffff;fill-opacity:1;stroke:#ffffff;stroke-width:3.62369776;stroke-miterlimit:4;stroke-dasharray:none;stroke-opacity:1"
       id="path826-2"
       cx="381.66089"
       cy="148.39815"
       rx="91.09433"
       ry="88.421638" />
  </defs>
  <sodipodi:namedview
     id="base"
     pagecolor="#ffffff"
     bordercolor="#666666"
     borderopacity="1.0"
     inkscape:pageopacity="0.0"
     inkscape:pageshadow="2"
     inkscape:zoom="0.35"
     inkscape:cx="207.166"
     inkscape:cy="365.72086"
     inkscape:document-units="mm"
     inkscape:current-layer="layer1"
     showgrid="false"
     inkscape:window-width="1680"
     inkscape:window-height="987"
     inkscape:window-x="-8"
     inkscape:window-y="-8"
     inkscape:window-maximized="1"
     fit-margin-top="0"
     fit-margin-left="0"
     fit-margin-right="0"
     fit-margin-bottom="0" />
  <metadata
     id="metadata5">
    <rdf:RDF>
      <cc:Work
         rdf:about="">
        <dc:format>image/svg+xml</dc:format>
        <dc:type
           rdf:resource="http://purl.org/dc/dcmitype/StillImage" />
        <dc:title></dc:title>
      </cc:Work>
    </rdf:RDF>
  </metadata>
  <g
     inkscape:label="Layer 1"
     inkscape:groupmode="layer"
     id="layer1"
     transform="translate(-1148.8921,854.18402)">
    <path
       style="opacity:1;fill:#f92219;fill-opacity:1;stroke:none;stroke-width:19.77076149;stroke-miterlimit:4;stroke-dasharray:none;stroke-opacity:1"
       d="m 4817.2832,-3228.4121 a 491.16144,488.16703 0 0 0 -461.5977,323.1387 h 150.5313 617.1328 155.6797 a 491.16144,488.16703 0 0 0 -461.7461,-323.1387 z m -475.0137,610.9941 a 491.16144,488.16703 0 0 0 475.0137,365.3399 491.16144,488.16703 0 0 0 474.7324,-365.3399 h -165.291 -624.1133 z"
       transform="scale(0.26458333)"
       id="path826-6-7-6"
       inkscape:connector-curvature="0" />
    <g
       aria-label="SLP"
       transform="matrix(1.0707644,0,0,0.93391225,892.21768,-878.04103)"
       style="font-style:normal;font-weight:normal;font-size:99.25031281px;line-height:1.25;font-family:sans-serif;letter-spacing:0px;word-spacing:0px;fill:#f92219;fill-opacity:1;stroke:none;stroke-width:2.48125792"
       id="text858-1-2">
      <path
         d="m 270.91431,190.80766 v -22.97102 h 13.92831 c 0.15738,4.20005 1.49512,9.88173 4.01323,11.88483 2.51811,1.97079 5.39033,2.95619 8.61666,2.95619 2.51812,0 6.49601,-0.71078 8.22721,-2.13233 1.7312,-1.45387 2.5968,-3.15004 2.5968,-5.08852 0,-2.06771 -0.84593,-3.79619 -2.53779,-5.18544 -9.59654,-4.92315 -14.84862,-0.33184 -30.22745,-11.60625 -3.38371,-2.87541 -5.57479,-10.40927 -5.32518,-17.43415 0.20876,-5.8752 2.24269,-10.4355 6.72807,-13.6663 4.48539,-3.23081 9.58063,-4.84621 15.28573,-4.84621 6.53135,0 11.58724,2.08387 15.16768,6.25161 v -5.57314 h 13.86928 v 20.49945 h -13.86928 c -0.4328,-3.16619 -1.77055,-5.60544 -4.01324,-7.31777 -2.20335,-1.74463 -4.78048,-2.61695 -7.73139,-2.61695 -2.28203,0 -4.20996,0.50077 -5.78378,1.50232 -1.57383,1.00155 -2.36074,2.31003 -2.36074,3.92543 0,1.38925 0.6492,2.71388 1.94761,3.97389 7.66114,5.74464 17.42045,5.64503 25.2747,9.873 3.26567,1.77695 5.8428,4.10313 7.73138,6.97854 1.88859,2.84311 2.877,7.60565 2.877,11.35338 0,6.65546 -2.36073,11.66321 -7.08219,15.02324 -4.72146,3.36004 -10.30852,5.04006 -16.76118,5.04006 -7.20021,0 -12.74792,-2.18079 -16.64313,-6.54238 v 5.71852 z"
         style="font-style:normal;font-variant:normal;font-weight:bold;font-stretch:normal;font-family:Rockwell;-inkscape-font-specification:'Rockwell Bold';fill:#f92219;fill-opacity:1;stroke-width:2.73819256"
         id="path878-5-2"
         inkscape:connector-curvature="0"
         sodipodi:nodetypes="ccccscsccsssccccccscscccsssccc" />
      <path
         d="m 325.56959,190.80766 v -11.38858 h 9.00457 v -44.63357 h -9.00457 v -11.38858 h 37.06638 v 11.38858 h -9.18557 v 44.63357 h 16.10133 v -20.83869 h 12.26251 v 32.22727 z"
         style="font-style:normal;font-variant:normal;font-weight:bold;font-stretch:normal;font-family:Rockwell;-inkscape-font-specification:'Rockwell Bold';fill:#f92219;fill-opacity:1;stroke-width:2.39759588"
         id="path880-56-1"
         inkscape:connector-curvature="0"
         sodipodi:nodetypes="ccccccccccccccc" />
      <path
         inkscape:connector-curvature="0"
         d="m 421.45621,179.41908 v 11.38858 h -35.52269 v -11.38858 h 8.57778 v -44.63357 h -8.57778 v -11.38858 h 35.52269 q 12.40629,0 19.14252,5.81545 6.78469,5.81544 6.78469,15.65324 0,5.6216 -2.37464,10.2255 -2.37464,4.55543 -6.10622,7.027 -3.68312,2.4231 -8.48086,3.34388 -4.74929,0.87232 -11.92167,0.87232 h -6.44546 v 13.08476 z m -9.40164,-24.32796 h 2.61695 q 9.01395,0 11.58244,-2.90772 2.61695,-2.95619 2.61695,-7.31778 0,-3.68311 -1.7931,-6.2516 -1.79309,-2.61695 -4.11927,-3.1985 -2.32618,-0.63001 -7.60855,-0.63001 h -3.29542 z"
         style="font-style:normal;font-variant:normal;font-weight:bold;font-stretch:normal;font-family:Rockwell;-inkscape-font-specification:'Rockwell Bold';fill:#f92219;fill-opacity:1;stroke-width:2.48125792"
         id="path882-40-6" />
    </g>
    <g
       aria-label="                                                                                                                                  SCOTTISH"
       transform="matrix(1.0798829,0,0,1.0469215,862.33007,-887.96592)"
       style="font-style:normal;font-weight:normal;font-size:10.58333302px;line-height:1.25;font-family:sans-serif;letter-spacing:0px;word-spacing:0px;fill:#ffffff;fill-opacity:1;stroke:none;stroke-width:0.26458332"
       id="text911-1-4-8">
      <path
         d="m 312.5822,90.399472 -4.83189,-4.981818 2.4804,-2.405749 q 1.36724,1.325546 2.67191,1.32477 1.29448,-0.01129 2.15631,-0.847182 0.67265,-0.652407 0.68657,-1.563383 0.004,-0.921487 -0.60791,-1.552097 -0.6524,-0.67265 -1.54268,-0.686252 -0.90046,-0.02411 -2.66948,0.549418 -3.72563,1.227029 -5.54726,1.178489 -1.81113,-0.05873 -3.3504,-1.645768 -1.85528,-1.91285 -1.67651,-4.125965 0.17878,-2.213116 1.70275,-3.691224 1.74469,-1.692179 4.01612,-1.264008 l -1.17229,-1.208669 2.46988,-2.395555 4.312,4.4458 -2.46989,2.395554 q -1.11461,-0.917863 -2.25396,-0.893853 -1.13904,0.0033 -1.9273,0.767846 -0.60959,0.591243 -0.71398,1.324812 -0.1044,0.733569 0.40529,1.259078 0.43834,0.451937 1.18273,0.525436 0.7342,0.06299 3.13959,-0.821805 2.32194,-0.844652 3.75463,-1.091978 1.43301,-0.268031 2.84475,0.178069 1.40155,0.435589 2.58403,1.654769 2.09994,2.165093 1.89888,4.481412 -0.20106,2.31632 -1.92473,3.988111 -1.92336,1.865475 -4.34004,1.455794 l 1.20288,1.240199 z"
         style="font-size:29.9861145px;fill:#ffffff"
         id="path983-4-7"
         inkscape:connector-curvature="0" />
      <path
         d="m 327.67561,52.980204 2.9261,-1.810239 3.77455,6.101231 -2.9261,1.81024 q -3.27878,-2.51688 -6.3543,-0.614203 -2.54011,1.571442 -2.77678,4.11103 -0.22421,2.531885 1.2702,4.947474 1.56373,2.527653 3.90399,3.249195 2.34501,0.701388 4.47422,-0.61585 1.74321,-1.078441 2.31882,-3.070163 0.5756,-1.991722 -0.26552,-4.381041 l 4.42082,-0.479517 q 1.78589,7.228214 -4.82585,11.318584 -4.66931,2.88868 -8.60358,1.84478 -3.92182,-1.051604 -6.3021,-4.899115 -1.69469,-2.739328 -1.73301,-5.556436 -0.0383,-2.817108 1.40172,-5.137007 1.44478,-2.340054 3.93508,-3.880683 3.10042,-1.918084 6.19368,-1.593519 z"
         style="font-size:29.9861145px;fill:#ffffff"
         id="path985-5-8"
         inkscape:connector-curvature="0" />
      <path
         d="m 349.17806,43.970894 q 5.05166,-1.504689 8.81171,0.553035 3.77409,2.053543 5.02381,6.249231 1.25391,4.209721 -0.78142,7.993657 -2.03951,3.769903 -7.07714,5.270412 -5.23409,1.559025 -8.93085,-0.593938 -3.70093,-2.166996 -4.90468,-6.208328 -1.24555,-4.181656 0.76172,-7.957232 2.01712,-3.793789 7.09685,-5.306837 z m 1.06164,3.56423 q -2.24519,0.668751 -3.31525,2.820765 -1.05604,2.147834 -0.0863,5.403351 0.85684,2.876642 2.91451,4.142862 2.05766,1.266219 4.34494,0.58493 2.24519,-0.668751 3.31525,-2.820765 1.06589,-2.166046 0.1171,-5.351401 -0.84848,-2.848578 -2.87659,-4.169433 -2.0281,-1.320856 -4.41361,-0.610309 z"
         style="font-size:29.9861145px;fill:#ffffff"
         id="path987-8-1"
         inkscape:connector-curvature="0" />
      <path
         d="m 371.22012,60.365362 -0.16364,-3.436897 3.05665,-0.145532 -0.64132,-13.469708 -3.05664,0.145533 0.22561,4.738529 -3.4954,0.166422 -0.38925,-8.175425 18.44224,-0.878071 0.38925,8.175425 -3.45152,0.164334 -0.22561,-4.738529 -3.1444,0.149711 0.64132,13.469708 3.05664,-0.145533 0.16364,3.436896 z"
         style="font-size:29.9861145px;fill:#ffffff"
         id="path989-94-9"
         inkscape:connector-curvature="0" />
      <path
         d="m 391.56476,60.314897 0.56786,-3.393607 3.01814,0.505033 2.22553,-13.300051 -3.01814,-0.505033 -0.78293,4.678845 -3.45137,-0.577525 1.35079,-8.072452 18.20995,3.047111 -1.35079,8.072452 -3.40804,-0.570276 0.78292,-4.678845 -3.10479,-0.519532 -2.22553,13.300051 3.01815,0.505033 -0.56786,3.393607 z"
         style="font-size:29.9861145px;fill:#ffffff"
         id="path991-0-2"
         inkscape:connector-curvature="0" />
      <path
         d="m 407.8271,63.491669 1.1621,-3.238601 2.90786,1.043424 4.55447,-12.692562 -2.90786,-1.043424 1.16211,-3.238602 10.83209,3.886877 -1.16211,3.238602 -2.93541,-1.053314 -4.55447,12.692562 2.93541,1.053313 -1.1621,3.238602 z"
         style="font-size:29.9861145px;fill:#ffffff"
         id="path993-2-7"
         inkscape:connector-curvature="0" />
      <path
         d="m 420.60213,68.183312 3.33266,-6.087612 3.03096,1.659298 q -0.86265,1.697722 -0.47661,2.943971 0.39307,1.233406 1.4462,1.809942 0.82196,0.449979 1.69641,0.194245 0.88149,-0.268577 1.30335,-1.039161 0.44998,-0.821956 0.20005,-1.676538 -0.24289,-0.867424 -1.31327,-2.388161 -2.27256,-3.197091 -2.76415,-4.951813 -0.47875,-1.747692 0.58292,-3.686995 1.27963,-2.337437 3.44683,-2.820218 2.1672,-0.482781 4.02944,0.536703 2.13195,1.167133 2.39368,3.463702 l 0.80856,-1.476952 3.01812,1.652267 -2.97408,5.432616 -3.01812,-1.652268 q 0.54775,-1.33596 0.18834,-2.417405 -0.33954,-1.087257 -1.30277,-1.614576 -0.7449,-0.407794 -1.47658,-0.290896 -0.73168,0.116898 -1.08323,0.759051 -0.30233,0.552252 -0.15271,1.285152 0.15664,0.720057 1.71234,2.756862 1.49269,1.968934 2.15209,3.264681 0.67928,1.289935 0.66999,2.770452 -0.002,1.467674 -0.81784,2.957469 -1.44837,2.645671 -3.72075,3.137638 -2.27239,0.491968 -4.37865,-0.661104 -2.35028,-1.286659 -2.67257,-3.716534 l -0.82965,1.515482 z"
         style="font-size:29.9861145px;fill:#ffffff"
         id="path995-6-0"
         inkscape:connector-curvature="0" />
      <path
         d="m 434.29703,75.493092 2.25049,-2.602757 1.92715,1.666318 8.81999,-10.200592 -1.92715,-1.666318 2.25049,-2.602757 7.44277,6.435433 -2.25048,2.602757 -1.61703,-1.398174 -2.92085,3.378046 4.19764,3.629508 2.92084,-3.378047 -1.56165,-1.350291 2.25049,-2.602757 7.39847,6.397127 -2.25048,2.602757 -1.93823,-1.675895 -8.81999,10.200593 1.93822,1.675894 -2.25048,2.602757 -7.39848,-6.397127 2.25049,-2.602757 1.56165,1.350292 3.63909,-4.208714 -4.19764,-3.629507 -3.63908,4.208713 1.61703,1.398174 -2.25049,2.602757 z"
         style="font-size:29.9861145px;fill:#ffffff"
         id="path997-7-5"
         inkscape:connector-curvature="0" />
    </g>
    <g
       aria-label="LABOUR PARTY"
       style="font-style:normal;font-weight:normal;font-size:10.58333302px;line-height:1.25;font-family:sans-serif;letter-spacing:0px;word-spacing:0px;fill:#ffffff;fill-opacity:1;stroke:none;stroke-width:0.26458332"
       id="text1004-6-3"
       transform="rotate(-4.7645949,-9750.2689,-11015.054)">
      <path
         d="m 271.46147,194.65229 2.86981,-1.50045 1.2706,2.43018 11.24721,-5.8805 -1.27059,-2.43018 2.86981,-1.50045 4.87806,9.32994 -2.86981,1.50045 -1.29613,-2.47903 -11.24722,5.8805 2.6242,5.01911 5.25114,-2.74551 1.73031,3.30944 -8.12095,4.24596 z"
         style="font-style:normal;font-variant:normal;font-weight:bold;font-stretch:normal;font-size:28.22222137px;font-family:ROCKWELL;-inkscape-font-specification:'ROCKWELL Bold';fill:#ffffff"
         id="path1128-9-8"
         inkscape:connector-curvature="0" />
      <path
         d="m 293.62045,225.08343 -2.61137,1.91517 -5.57437,-7.60077 2.61137,-1.91517 1.45064,1.97798 2.11795,-2.68118 -2.94203,-4.01152 -3.2589,1.12546 1.51584,2.06688 -2.61138,1.91517 -5.02019,-6.84514 2.61137,-1.91517 1.40175,1.91131 12.44293,-4.49443 -1.50769,-2.05576 2.61138,-1.91517 7.39989,10.08991 -2.61137,1.91517 -1.52399,-2.07799 -7.85467,10.75062 z m -0.20341,-10.5999 3.71066,-4.70373 -5.67473,2.02568 z"
         style="font-style:normal;font-variant:normal;font-weight:bold;font-stretch:normal;font-size:28.22222137px;font-family:ROCKWELL;-inkscape-font-specification:'ROCKWELL Bold';fill:#ffffff"
         id="path1130-9-9"
         inkscape:connector-curvature="0" />
      <path
         d="m 293.26181,230.81418 2.41508,-2.15743 1.56988,1.75736 9.46509,-8.45529 -1.56987,-1.75736 2.41508,-2.15744 5.82967,6.52588 q 1.93709,2.16844 2.62577,3.45648 0.69894,1.27887 0.41118,2.92179 -0.2775,1.63374 -1.58267,2.79968 -2.08623,1.86366 -4.74889,0.62053 1.33939,3.42304 -1.12709,5.62637 -1.41822,1.26692 -3.15172,1.3742 -1.71405,0.10836 -3.21324,-0.82521 -1.47971,-0.93247 -3.50862,-3.20368 z m 13.54645,-2.2524 0.93641,1.04825 q 0.97315,1.08935 1.80214,1.2727 0.829,0.18335 1.76421,-0.65208 0.85299,-0.76198 0.75255,-1.57769 -0.0912,-0.80544 -1.20209,-2.04895 l -0.82625,-0.92493 z m -6.23813,5.5726 0.93642,1.04825 q 1.2761,1.4285 2.19211,1.6265 0.91601,0.19802 1.95399,-0.72921 1.08935,-0.97315 0.97015,-1.97535 -0.0997,-1.0011 -1.29321,-2.33711 l -0.93642,-1.04825 z"
         style="font-style:normal;font-variant:normal;font-weight:bold;font-stretch:normal;font-size:28.22222137px;font-family:ROCKWELL;-inkscape-font-specification:'ROCKWELL Bold';fill:#ffffff"
         id="path1132-8-0"
         inkscape:connector-curvature="0" />
      <path
         d="m 327.59515,235.21618 q 4.08928,2.80869 4.80645,6.77858 0.72854,3.97768 -1.60423,7.37405 -2.34057,3.40774 -6.3147,4.15543 -3.96633,0.73634 -8.04425,-2.06454 -4.23694,-2.91011 -4.84696,-6.88998 -0.60221,-3.99123 1.64474,-7.26265 2.32497,-3.38501 6.27638,-4.14832 3.97057,-0.76686 8.08257,2.05743 z m -1.98169,2.88522 q -1.81745,-1.24831 -4.0259,-0.75903 -2.19709,0.49708 -4.00713,3.13239 -1.59939,2.32862 -1.30952,4.584 0.28986,2.25538 2.1414,3.52709 1.81745,1.2483 4.0259,0.75902 2.21625,-0.50064 3.98728,-3.07915 1.58379,-2.3059 1.35141,-4.57195 -0.23239,-2.26605 -2.16344,-3.59237 z"
         style="font-style:normal;font-variant:normal;font-weight:bold;font-stretch:normal;font-size:28.22222137px;font-family:ROCKWELL;-inkscape-font-specification:'ROCKWELL Bold';fill:#ffffff"
         id="path1134-1-3"
         inkscape:connector-curvature="0" />
      <path
         d="m 334.24817,242.85862 1.35916,-2.93935 8.30526,3.84037 -1.35917,2.93936 -1.71359,-0.79237 -3.63794,7.86748 q -0.72875,1.57599 -0.92755,2.33427 -0.18052,0.75156 0.17412,1.46211 0.35465,0.71055 1.21769,1.10962 0.88806,0.41065 1.67258,0.25721 0.78452,-0.15343 1.24209,-0.71615 0.47008,-0.55693 1.37812,-2.52067 l 3.53384,-7.64234 -1.68857,-0.78079 1.35917,-2.93936 6.92938,3.20416 -1.35917,2.93936 -2.12634,-0.98323 -4.02546,8.70551 q -0.82128,1.77612 -1.38484,2.50238 -0.55777,0.71375 -1.60336,1.20194 -1.0398,0.47568 -2.55946,0.38027 -1.50137,-0.10212 -3.16492,-0.87136 -1.92622,-0.89068 -3.04088,-2.05895 -1.09638,-1.17498 -1.34287,-2.38209 -0.24649,-1.20711 -0.0235,-2.18192 0.22303,-0.97482 1.21204,-3.11367 l 3.63794,-7.86748 z"
         style="font-style:normal;font-variant:normal;font-weight:bold;font-stretch:normal;font-size:28.22222137px;font-family:ROCKWELL;-inkscape-font-specification:'ROCKWELL Bold';fill:#ffffff"
         id="path1136-0-4"
         inkscape:connector-curvature="0" />
      <path
         d="m 369.65774,267.74966 -0.88887,3.11402 -5.61847,-1.60374 -1.85738,-9.25761 -2.10693,-0.6014 -1.41461,4.95592 2.30569,0.65814 -0.88886,3.11402 -9.63357,-2.74981 0.88886,-3.11401 2.53097,0.72243 3.48359,-12.20428 -2.53097,-0.72244 0.88887,-3.11402 11.11769,3.17344 q 3.14052,0.89642 4.06475,2.87993 0.94126,1.97404 0.37012,3.97496 -0.89643,3.14051 -4.50223,3.67333 l 1.40614,6.42029 z m -9.63195,-11.29048 1.64314,0.46902 q 3.04776,0.86995 3.66807,-1.30323 0.30637,-1.07335 -0.24464,-1.80386 -0.53776,-0.72673 -1.75687,-1.07471 l -2.08042,-0.59384 z"
         style="font-style:normal;font-variant:normal;font-weight:bold;font-stretch:normal;font-size:28.22222137px;font-family:ROCKWELL;-inkscape-font-specification:'ROCKWELL Bold';fill:#ffffff"
         id="path1138-5-7"
         inkscape:connector-curvature="0" />
      <g
         id="g1156-6-9"
         transform="rotate(-13.837166,409.62516,200.75304)"
         style="fill:#ffffff">
        <path
           inkscape:connector-curvature="0"
           id="path1140-8-0"
           style="font-style:normal;font-variant:normal;font-weight:bold;font-stretch:normal;font-size:28.22222137px;font-family:ROCKWELL;-inkscape-font-specification:'ROCKWELL Bold';fill:#ffffff"
           d="m 386.01473,260.7665 -0.23928,3.22953 -10.07342,-0.74638 0.23929,-3.22953 2.43247,0.18022 0.93781,-12.65703 -2.43246,-0.18023 0.23928,-3.22954 10.07341,0.74638 q 3.51813,0.26068 5.30618,2.05133 1.80178,1.79168 1.59508,4.58146 -0.11815,1.59415 -0.88823,2.84981 -0.76912,1.24193 -1.87924,1.8644 -1.09535,0.60974 -2.47523,0.77005 -1.36511,0.14758 -3.39904,-0.003 l -1.82778,-0.13548 -0.27492,3.71053 z m -2.15493,-7.09639 0.74212,0.055 q 2.55614,0.1894 3.3456,-0.5812 0.80422,-0.78331 0.89586,-2.02016 0.0774,-1.04445 -0.37713,-1.8105 -0.4535,-0.77977 -1.10092,-0.99356 -0.64642,-0.22753 -2.14438,-0.33852 l -0.93449,-0.0692 z" />
        <path
           inkscape:connector-curvature="0"
           id="path1142-4-0"
           style="font-style:normal;font-variant:normal;font-weight:bold;font-stretch:normal;font-size:28.22222137px;font-family:ROCKWELL;-inkscape-font-specification:'ROCKWELL Bold';fill:#ffffff"
           d="m 414.84288,258.64188 0.45427,3.20636 -9.33256,1.32225 -0.45429,-3.20637 2.42865,-0.34409 -1.36253,-3.13336 -4.92552,0.69784 -0.54766,3.40401 2.53782,-0.35957 0.45427,3.20637 -8.40478,1.19079 -0.45428,-3.20636 2.3468,-0.33249 1.91716,-13.09012 -2.52416,0.35764 -0.45428,-3.20637 12.38886,-1.75527 0.45428,3.20637 -2.55145,0.3615 5.76447,12.00176 z m -9.43852,-4.82843 -2.39268,-5.49264 -0.89555,5.95852 z" />
        <path
           inkscape:connector-curvature="0"
           id="path1144-8-7"
           style="font-style:normal;font-variant:normal;font-weight:bold;font-stretch:normal;font-size:28.22222137px;font-family:ROCKWELL;-inkscape-font-specification:'ROCKWELL Bold';fill:#ffffff"
           d="m 436.84262,252.61757 0.91109,3.1076 -5.60689,1.64382 -6.51334,-6.83592 -2.10256,0.61644 1.44997,4.9457 2.30094,-0.67459 0.91107,3.10758 -9.61367,2.81854 -0.91109,-3.10759 2.52575,-0.74049 -3.57069,-12.17909 -2.52572,0.74049 -0.91109,-3.10758 11.09474,-3.25276 q 3.13404,-0.91885 4.97454,0.26488 1.84985,1.16654 2.43528,3.16334 0.91883,3.13403 -1.84551,5.50977 l 4.61689,4.67779 z m -14.17238,-4.40373 1.63974,-0.48075 q 3.04147,-0.8917 2.40565,-3.06039 -0.31404,-1.07113 -1.16998,-1.3946 -0.84271,-0.32736 -2.0593,0.0294 l -2.07613,0.6087 z" />
        <path
           inkscape:connector-curvature="0"
           id="path1146-4-0"
           style="font-style:normal;font-variant:normal;font-weight:bold;font-stretch:normal;font-size:28.22222137px;font-family:ROCKWELL;-inkscape-font-specification:'ROCKWELL Bold';fill:#ffffff"
           d="m 444.35106,251.7758 -1.52123,-2.85885 2.54255,-1.35293 -5.96195,-11.20425 -2.54255,1.35293 2.09736,3.94156 -2.90751,1.54713 -3.61859,-6.80041 15.34045,-8.16288 3.6186,6.80041 -2.87101,1.5277 -2.09737,-3.94156 -2.61554,1.39177 5.96195,11.20425 2.54255,-1.35293 1.52123,2.85885 z" />
        <path
           inkscape:connector-curvature="0"
           id="path1148-0-5"
           style="font-style:normal;font-variant:normal;font-weight:bold;font-stretch:normal;font-size:28.22222137px;font-family:ROCKWELL;-inkscape-font-specification:'ROCKWELL Bold';fill:#ffffff"
           d="m 464.11364,240.22363 -1.87935,-2.63727 2.18837,-1.55946 -3.00697,-4.21963 -8.58936,-3.10126 -1.90781,1.35954 -1.87936,-2.63727 7.81081,-5.56609 1.87936,2.63727 -1.53748,1.09562 5.00845,2.18418 -0.39603,-5.47105 -1.60481,1.1436 -1.87935,-2.63726 6.87934,-4.90232 1.87936,2.63726 -1.91904,1.36754 0.31844,8.99523 3.00697,4.21963 2.17715,-1.55147 1.87935,2.63727 z" />
      </g>
    </g>
  </g>
</svg>
